<svg id="Icon_Set" enable-background="new 0 0 64 64" height="512" viewBox="0 0 64 64" width="512" xmlns="http://www.w3.org/2000/svg"><circle cx="20" cy="46" fill="#db8e11" r="14"/><path d="m20 60.5c-7.995 0-14.5-6.505-14.5-14.5s6.505-14.5 14.5-14.5 14.5 6.505 14.5 14.5-6.505 14.5-14.5 14.5zm0-28c-7.444 0-13.5 6.056-13.5 13.5s6.056 13.5 13.5 13.5 13.5-6.056 13.5-13.5-6.056-13.5-13.5-13.5z" fill="#212a41"/><path d="m50 4h-24c-2.209 0-4 1.791-4 4v16c0 2.209 1.791 4 4 4h2v7h4v-7h18c2.209 0 4-1.791 4-4v-16c0-2.209-1.791-4-4-4z" fill="#99a2b9"/><path d="m32 35.5h-4c-.276 0-.5-.224-.5-.5v-6.5h-1.5c-2.481 0-4.5-2.019-4.5-4.5v-16c0-2.481 2.019-4.5 4.5-4.5h24c2.481 0 4.5 2.019 4.5 4.5v16c0 2.481-2.019 4.5-4.5 4.5h-17.5v6.5c0 .276-.224.5-.5.5zm-3.5-1h3v-6.5c0-.276.224-.5.5-.5h18c1.93 0 3.5-1.57 3.5-3.5v-16c0-1.93-1.57-3.5-3.5-3.5h-24c-1.93 0-3.5 1.57-3.5 3.5v16c0 1.93 1.57 3.5 3.5 3.5h2c.276 0 .5.224.5.5z" fill="#212a41"/><path d="m54 4h-24c-2.209 0-4 1.791-4 4v16c0 2.209 1.791 4 4 4h2v7l10-7h12c2.209 0 4-1.791 4-4v-16c0-2.209-1.791-4-4-4z" fill="#b7c0d7"/><path d="m32 35.5c-.079 0-.158-.019-.231-.057-.165-.086-.269-.256-.269-.443v-6.5h-1.5c-2.481 0-4.5-2.019-4.5-4.5v-16c0-2.481 2.019-4.5 4.5-4.5h24c2.481 0 4.5 2.019 4.5 4.5v16c0 2.481-2.019 4.5-4.5 4.5h-11.842l-9.871 6.91c-.086.06-.186.09-.287.09zm-2-31c-1.93 0-3.5 1.57-3.5 3.5v16c0 1.93 1.57 3.5 3.5 3.5h2c.276 0 .5.224.5.5v6.04l9.213-6.449c.084-.059.184-.09.287-.09h12c1.93 0 3.5-1.57 3.5-3.5v-16.001c0-1.93-1.57-3.5-3.5-3.5z" fill="#212a41"/><path d="m28 24.5c-.276 0-.5-.224-.5-.5v-16c0-.276.224-.5.5-.5s.5.224.5.5v16c0 .276-.224.5-.5.5z" fill="#d5def5"/><path d="m56 24.5c-.276 0-.5-.224-.5-.5v-16c0-.276.224-.5.5-.5s.5.224.5.5v16c0 .276-.224.5-.5.5z" fill="#99a2b9"/><circle cx="23" cy="46" fill="#f9ac2f" r="14"/><path d="m23 60.5c-7.995 0-14.5-6.505-14.5-14.5s6.505-14.5 14.5-14.5 14.5 6.505 14.5 14.5-6.505 14.5-14.5 14.5zm0-28c-7.444 0-13.5 6.056-13.5 13.5s6.056 13.5 13.5 13.5 13.5-6.056 13.5-13.5-6.056-13.5-13.5-13.5z" fill="#212a41"/><path d="m23 58.5c-.276 0-.5-.224-.5-.5s.224-.5.5-.5c6.341 0 11.5-5.159 11.5-11.5 0-.276.224-.5.5-.5s.5.224.5.5c0 6.893-5.607 12.5-12.5 12.5z" fill="#db8e11"/><path d="m11 46.5c-.276 0-.5-.224-.5-.5 0-6.893 5.607-12.5 12.5-12.5.276 0 .5.224.5.5s-.224.5-.5.5c-6.341 0-11.5 5.159-11.5 11.5 0 .276-.224.5-.5.5z" fill="#ffca4d"/><path d="m23 55.5c4.971 0 9-4.029 9-9h-18c0 4.971 4.029 9 9 9z" fill="#e0e0e0"/><path d="m23 56c-5.238 0-9.5-4.262-9.5-9.5 0-.276.224-.5.5-.5h18c.276 0 .5.224.5.5 0 5.238-4.262 9.5-9.5 9.5zm-8.485-9c.26 4.455 3.966 8 8.485 8s8.226-3.545 8.485-8z" fill="#212a41"/><circle cx="27.5" cy="41.5" fill="#e0e0e0" r="1.5"/><path d="m27.5 43.5c-1.103 0-2-.897-2-2s.897-2 2-2 2 .897 2 2-.897 2-2 2zm0-3c-.551 0-1 .449-1 1s.449 1 1 1 1-.449 1-1-.449-1-1-1z" fill="#212a41"/><circle cx="18.5" cy="41.5" fill="#e0e0e0" r="1.5"/><path d="m18.5 43.5c-1.103 0-2-.897-2-2s.897-2 2-2 2 .897 2 2-.897 2-2 2zm0-3c-.551 0-1 .449-1 1s.449 1 1 1 1-.449 1-1-.449-1-1-1z" fill="#212a41"/><path d="m42 8 2.163 4.609 4.837.739-3.5 3.587.826 5.065-4.326-2.391-4.326 2.391.826-5.065-3.5-3.587 4.837-.739z" fill="#f9ac2f"/><path d="m46.326 22.5c-.083 0-.167-.021-.242-.062l-4.084-2.258-4.084 2.258c-.167.094-.373.082-.53-.029-.156-.11-.236-.3-.206-.489l.786-4.816-3.324-3.406c-.131-.134-.176-.33-.116-.508s.213-.307.398-.335l4.573-.699 2.05-4.367c.165-.352.74-.352.905 0l2.05 4.367 4.573.699c.185.028.339.158.398.335s.015.374-.116.508l-3.324 3.406.786 4.816c.031.189-.049.379-.206.489-.085.06-.186.091-.287.091zm-4.326-3.392c.083 0 .167.021.242.062l3.425 1.894-.661-4.049c-.025-.157.025-.316.136-.43l2.82-2.891-3.875-.592c-.165-.025-.306-.131-.377-.282l-1.71-3.643-1.71 3.644c-.071.151-.212.257-.377.282l-3.875.592 2.82 2.891c.111.113.161.273.136.43l-.661 4.049 3.425-1.894c.075-.042.159-.063.242-.063z" fill="#212a41"/></svg>